<svg width="70" height="69" viewBox="0 0 70 69" fill="none" xmlns="http://www.w3.org/2000/svg">
<path fill-rule="evenodd" clip-rule="evenodd" d="M29.6115 4.13779C39.4 2.33687 41.1934 18.6375 46.9086 26.8705C51.8374 33.9704 60.8944 39.1917 59.9285 47.8104C58.8912 57.0672 50.9113 64.109 42.3495 67.5549C34.4537 70.7328 26.0035 68.1886 18.2973 64.566C10.4122 60.8593 -0.119287 56.4375 0.00102154 47.6474C0.118795 39.0425 13.9173 39.1424 18.7423 32.0526C24.6411 23.385 19.3726 6.02157 29.6115 4.13779Z" fill="#432BFA" fill-opacity="0.2"/>
<path d="M10.1499 35.0217C10.3572 36.0172 10.7587 36.962 11.3313 37.8023C11.9039 38.6426 12.6364 39.3619 13.4871 39.919C14.3377 40.4761 15.2898 40.8602 16.2889 41.0492C17.288 41.2383 18.3146 41.2287 19.31 41.0209L20.7292 40.7241L21.7935 45.8396C21.9191 46.4399 22.2205 46.9893 22.6593 47.4178C23.0982 47.8463 23.6546 48.1345 24.2577 48.2457C24.4492 48.281 24.6436 48.2982 24.8383 48.2973C25.3508 48.2963 25.8549 48.1678 26.3053 47.9234C26.7557 47.6791 27.1383 47.3265 27.4186 46.8975L33.1727 38.118L48.2998 34.9636C49.2952 34.7563 50.2401 34.3548 51.0804 33.7822C51.9207 33.2096 52.64 32.4771 53.1971 31.6264C53.7542 30.7758 54.1383 29.8237 54.3273 28.8246C54.5164 27.8255 54.5068 26.7989 54.299 25.8035L50.3124 6.68989C50.1051 5.69441 49.7036 4.74953 49.131 3.90923C48.5584 3.06893 47.8259 2.34968 46.9752 1.79256C46.1246 1.23545 45.1725 0.851391 44.1734 0.662326C43.1743 0.473261 42.1477 0.482896 41.1523 0.69068L12.1626 6.7415C11.1671 6.94883 10.2222 7.35027 9.38189 7.92287C8.54159 8.49547 7.82233 9.22802 7.26522 10.0787C6.70811 10.9293 6.32405 11.8814 6.13498 12.8805C5.94592 13.8796 5.95555 14.9062 6.16334 15.9016L10.1499 35.0217ZM12.8205 9.90883L41.8167 3.85156C42.9886 3.60732 44.2095 3.83841 45.2111 4.49403C46.2127 5.14965 46.913 6.17614 47.158 7.34787L51.1574 26.4615C51.2772 27.0426 51.2812 27.6417 51.1693 28.2244C51.0574 28.8071 50.8317 29.3621 50.5052 29.8575C50.1787 30.353 49.7578 30.7792 49.2665 31.1119C48.7751 31.4445 48.223 31.6771 47.6418 31.7963L31.8567 35.0862C31.6494 35.1297 31.4527 35.2136 31.2778 35.3331C31.1029 35.4527 30.9533 35.6055 30.8375 35.7829L24.8964 44.8784L23.5611 38.4793C23.5182 38.2689 23.4339 38.0693 23.3129 37.892C23.1919 37.7147 23.0367 37.5633 22.8565 37.4468C22.6763 37.3302 22.4746 37.2508 22.2632 37.2132C22.0519 37.1756 21.8352 37.1806 21.6258 37.2278L18.6262 37.8729C17.4581 38.1095 16.2439 37.8748 15.2482 37.2198C14.2525 36.5649 13.5561 35.5429 13.3108 34.3766L9.32421 15.2436C9.20233 14.6629 9.19611 14.0638 9.30589 13.4807C9.41568 12.8976 9.63932 12.3418 9.96403 11.8451C10.2887 11.3485 10.7081 10.9207 11.1983 10.5862C11.6884 10.2518 12.2397 10.0172 12.8205 9.89592V9.90883ZM17.9811 17.1143C17.9339 16.905 17.9289 16.6882 17.9665 16.4769C18.0041 16.2656 18.0835 16.0639 18.2001 15.8837C18.3166 15.7034 18.468 15.5483 18.6453 15.4273C18.8226 15.3063 19.0223 15.2219 19.2326 15.1791L38.0301 11.257C38.4371 11.1987 38.851 11.298 39.1873 11.5347C39.5235 11.7713 39.7566 12.1275 39.839 12.5303C39.9214 12.9331 39.8468 13.3522 39.6304 13.7019C39.4141 14.0515 39.0724 14.3053 38.6752 14.4115L19.9035 18.3529C19.6941 18.4001 19.4774 18.4051 19.2661 18.3675C19.0547 18.3299 18.853 18.2505 18.6728 18.1339C18.4926 18.0174 18.3374 17.866 18.2164 17.6887C18.0954 17.5114 18.0111 17.3118 17.9682 17.1014L17.9811 17.1143ZM41.2039 18.5722C41.2512 18.7816 41.2561 18.9983 41.2185 19.2096C41.1809 19.4209 41.1015 19.6226 40.985 19.8029C40.8684 19.9831 40.7171 20.1383 40.5398 20.2593C40.3625 20.3802 40.1628 20.4646 39.9525 20.5074L21.1614 24.3908C20.7544 24.4491 20.3405 24.3498 20.0042 24.1132C19.668 23.8765 19.4349 23.5204 19.3525 23.1175C19.2702 22.7147 19.3447 22.2956 19.5611 21.946C19.7774 21.5963 20.1191 21.3425 20.5163 21.2364L39.3138 17.3143C39.7311 17.2304 40.1647 17.3149 40.5199 17.5493C40.8752 17.7837 41.1234 18.1491 41.2104 18.5658L41.2039 18.5722ZM36.54 25.8358C36.5872 26.0452 36.5922 26.2619 36.5546 26.4732C36.517 26.6845 36.4376 26.8862 36.3211 27.0664C36.2045 27.2467 36.0532 27.4018 35.8759 27.5228C35.6986 27.6438 35.4989 27.7282 35.2886 27.771L22.387 30.4545C21.98 30.5129 21.5661 30.4136 21.2299 30.1769C20.8937 29.9402 20.6606 29.5841 20.5782 29.1813C20.4958 28.7784 20.5704 28.3594 20.7867 28.0097C21.003 27.66 21.3447 27.4062 21.7419 27.3001L34.6435 24.6166C35.0562 24.5318 35.4858 24.6118 35.8402 24.8397C36.1946 25.0675 36.4458 25.4251 36.54 25.8358ZM69.0906 36.157L66.1361 50.3487C65.971 51.14 65.6517 51.891 65.1963 52.5588C64.741 53.2266 64.1585 53.7982 63.4822 54.2409C62.8059 54.6836 62.049 54.9887 61.2547 55.1388C60.4605 55.2889 59.6444 55.2811 58.8532 55.1158L58.2081 54.9803L57.505 58.367C57.3952 58.8924 57.1322 59.3735 56.7492 59.7495C56.3662 60.1255 55.8803 60.3796 55.353 60.4797C54.8257 60.5798 54.2805 60.5214 53.7864 60.3118C53.2922 60.1023 52.8713 59.751 52.5766 59.3024L48.4094 52.8903L37.3593 50.5874C35.7621 50.2524 34.363 49.2974 33.4693 47.9319C32.5755 46.5665 32.26 44.9022 32.5921 43.3044C32.6233 43.0868 32.6987 42.8779 32.8136 42.6905C32.9285 42.5031 33.0805 42.3411 33.2602 42.2146C33.44 42.088 33.6437 41.9996 33.8589 41.9546C34.0741 41.9097 34.2962 41.9093 34.5116 41.9533C34.727 41.9974 34.9311 42.085 35.1114 42.2108C35.2917 42.3366 35.4443 42.4979 35.56 42.6849C35.6756 42.8718 35.7518 43.0804 35.7839 43.2979C35.816 43.5154 35.8033 43.7371 35.7466 43.9495C35.59 44.7098 35.7411 45.5012 36.1666 46.1504C36.5922 46.7996 37.2576 47.2538 38.0172 47.4136L49.7189 49.8584C49.9262 49.9019 50.123 49.9858 50.2978 50.1054C50.4727 50.2249 50.6223 50.3777 50.7381 50.5551L54.6086 56.4447L55.3891 52.6903C55.432 52.48 55.5163 52.2803 55.6373 52.103C55.7583 51.9257 55.9135 51.7744 56.0937 51.6578C56.2739 51.5412 56.4756 51.4618 56.687 51.4243C56.8983 51.3867 57.115 51.3916 57.3244 51.4389L59.5499 51.9033C59.9264 51.9817 60.3147 51.9851 60.6926 51.9134C61.0705 51.8418 61.4306 51.6963 61.7522 51.4855C62.0739 51.2746 62.3509 51.0025 62.5674 50.6846C62.7839 50.3666 62.9356 50.0092 63.014 49.6327L65.9684 35.441C66.0468 35.0644 66.0502 34.6761 65.9785 34.2982C65.9068 33.9204 65.7614 33.5603 65.5506 33.2386C65.3397 32.917 65.0675 32.64 64.7496 32.4235C64.4317 32.207 64.0743 32.0552 63.6977 31.9769L58.9629 31.0286C58.5656 30.9225 58.2239 30.6687 58.0076 30.319C57.7913 29.9694 57.7167 29.5503 57.7991 29.1475C57.8815 28.7447 58.1146 28.3885 58.4508 28.1518C58.787 27.9152 59.201 27.8159 59.6079 27.8742L64.3041 28.8547C65.9035 29.1854 67.3061 30.1376 68.2037 31.5021C69.1013 32.8666 69.4203 34.5316 69.0906 36.1312V36.157Z" fill="black"/>
</svg>
