<svg width="80" height="68" viewBox="0 0 80 68" fill="none" xmlns="http://www.w3.org/2000/svg">
<path fill-rule="evenodd" clip-rule="evenodd" d="M29.5159 12.9116C34.2753 13.496 38.5877 15.202 42.7619 17.5819C47.4891 20.277 53.1753 22.4742 55.2029 27.5566C57.2656 32.7271 54.8645 38.4284 53.1985 43.7426C51.5189 49.1005 49.4926 54.286 45.5721 58.2773C41.0858 62.8445 35.7803 69.0347 29.5159 67.8529C23.0767 66.6382 22.5126 56.9473 17.2999 52.9439C12.2951 49.1001 2.73647 51.4184 0.429773 45.5142C-1.83707 39.712 5.48529 34.6321 7.90328 28.8924C10.0212 23.8648 9.33327 17.2422 13.7003 14.0132C18.0697 10.7823 24.1386 12.2512 29.5159 12.9116Z" fill="#F8C40B" fill-opacity="0.3"/>
<path d="M24.5833 0C22.0706 0 20 2.07061 20 4.58333V50.4167C20 52.9294 22.0706 55 24.5833 55H75C77.5127 55 79.5833 52.9294 79.5833 50.4167V4.58333C79.5833 2.07061 77.5127 0 75 0H24.5833ZM24.5833 3.05556H75C75.8728 3.05556 76.5278 3.71054 76.5278 4.58333V37.5499L66.9076 27.9297C66.7619 27.7855 66.5888 27.672 66.3984 27.5961C66.208 27.5202 66.0043 27.4833 65.7994 27.4877C65.5945 27.4922 65.3926 27.5378 65.2057 27.6218C65.0187 27.7059 64.8506 27.8267 64.7114 27.9771L55.0911 38.2656L40.1714 23.346C40.0095 23.1866 39.8141 23.0653 39.5993 22.9909C39.3846 22.9166 39.156 22.8911 38.9301 22.9163C38.6106 22.9501 38.3099 23.0837 38.0707 23.2982L23.0556 37.0005V4.58296C23.0556 3.71016 23.7105 3.05518 24.5833 3.05518V3.05556ZM54.375 7.63889C50.1743 7.63889 46.7361 11.077 46.7361 15.2778C46.7361 19.4785 50.1743 22.9167 54.375 22.9167C58.5757 22.9167 62.0139 19.4785 62.0139 15.2778C62.0139 11.077 58.5757 7.63889 54.375 7.63889ZM54.375 10.6944C56.9244 10.6944 58.9583 12.7284 58.9583 15.2778C58.9583 17.8272 56.9244 19.8611 54.375 19.8611C51.8256 19.8611 49.7917 17.8272 49.7917 15.2778C49.7917 12.7284 51.8256 10.6944 54.375 10.6944ZM39.0495 26.5451L54.0647 41.5603C54.2103 41.7045 54.3834 41.818 54.5738 41.8939C54.7642 41.9699 54.9679 42.0067 55.1728 42.0023C55.3777 41.9979 55.5796 41.9523 55.7666 41.8682C55.9535 41.7841 56.1216 41.6633 56.2609 41.513L65.8811 31.224L76.5278 41.8707V50.4167C76.5278 51.2895 75.8728 51.9444 75 51.9444H24.5833C23.7105 51.9444 23.0556 51.2895 23.0556 50.4167V41.1545L39.0495 26.5451Z" fill="black"/>
</svg>
