<svg width="95" height="79" viewBox="0 0 95 79" fill="none" xmlns="http://www.w3.org/2000/svg">
<path fill-rule="evenodd" clip-rule="evenodd" d="M31.9685 16.3239C39.4611 18.3487 39.2315 28.6032 44.3016 34.0855C47.6226 37.6765 53.845 38.2947 56.175 42.4986C58.68 47.0182 58.1815 52.3354 57.1839 57.3284C56.0548 62.9799 54.6754 68.9181 50.1154 72.8286C45.2778 76.9772 38.5545 79.3725 31.9685 78.9526C25.5847 78.5455 19.5316 75.2549 15.5553 70.6248C12.0532 66.5468 14.4406 60.4506 12.0365 55.743C9.01724 49.8305 -0.20033 46.7047 0.00332163 40.1704C0.203956 33.733 7.55066 29.6669 12.9754 25.62C18.689 21.3575 24.9191 14.4189 31.9685 16.3239Z" fill="#FFE4F5"/>
<path d="M33.2652 52.0338H47.4552V67.7777C47.4551 68.0074 47.5004 68.2349 47.5885 68.4468C47.6765 68.6587 47.8054 68.8509 47.9678 69.012C48.1301 69.1732 48.3227 69.3002 48.5342 69.3855C48.7457 69.4709 48.9719 69.513 49.1997 69.5093H57.5241C57.9795 69.5093 58.4163 69.3269 58.7383 69.0021C59.0603 68.6774 59.2412 68.2369 59.2412 67.7777V52.0338H62.3526L72.0575 61.1698C73.3287 62.3665 75.0027 63.0324 76.7417 63.033H91.4124C91.9571 63.0347 92.4896 62.8706 92.9403 62.5621C93.391 62.2536 93.739 61.8152 93.9386 61.3041C94.1382 60.793 94.1802 60.233 94.0591 59.6974C93.938 59.1619 93.6595 58.6756 93.26 58.3022L83.974 49.5541V27.8673C83.974 27.5856 83.974 27.3085 83.974 27.0361C83.7576 24.1543 82.4697 21.4612 80.3683 19.4962C78.2669 17.5311 75.5071 16.439 72.6413 16.4385H52.9017V2.66868C52.9017 2.44128 52.8573 2.21611 52.771 2.00602C52.6847 1.79593 52.5583 1.60503 52.3988 1.44424C52.2394 1.28344 52.0501 1.15589 51.8418 1.06887C51.6334 0.981847 51.4102 0.937057 51.1847 0.937057H43.9111C43.1417 0.910194 42.3749 1.03982 41.6562 1.3182C40.9376 1.59659 40.2819 2.01804 39.7282 2.55743C39.1745 3.09681 38.7341 3.7431 38.4334 4.45777C38.1326 5.17244 37.9776 5.94085 37.9776 6.71721C37.9776 7.49357 38.1326 8.26199 38.4334 8.97666C38.7341 9.69132 39.1745 10.3376 39.7282 10.877C40.2819 11.4164 40.9376 11.8378 41.6562 12.1162C42.3749 12.3946 43.1417 12.5242 43.9111 12.4974H49.4676V16.4385H41.0539C37.8569 16.4422 34.792 17.7251 32.5321 20.0054C30.2721 22.2858 29.0018 25.3774 29 28.6015V47.7324C29.0018 48.8726 29.4518 49.9656 30.2513 50.7719C31.0508 51.5782 32.1346 52.0319 33.2652 52.0338ZM55.807 66.0461H50.8893V52.0338H55.807V66.0461ZM76.7348 59.5698C75.8682 59.5686 75.034 59.2371 74.3996 58.6416L67.387 52.0338H81.577L89.5786 59.5698H76.7348ZM80.5193 27.2785C80.5193 27.4724 80.5193 27.6664 80.5193 27.8603V48.5705H64.7221V27.8673C64.6842 26.8212 64.851 25.7779 65.213 24.7969C65.5749 23.8158 66.1249 22.9163 66.8316 22.1496C68.2587 20.6012 70.2374 19.688 72.3322 19.6109C74.427 19.5337 76.4665 20.2989 78.0018 21.7382C79.5372 23.1775 80.4427 25.1729 80.5193 27.2854V27.2785ZM51.1847 27.5071C51.6275 27.5071 52.0604 27.6395 52.4286 27.8876C52.7968 28.1357 53.0838 28.4884 53.2533 28.901C53.4228 29.3136 53.4671 29.7676 53.3807 30.2056C53.2943 30.6436 53.0811 31.046 52.7679 31.3618C52.4548 31.6776 52.0558 31.8926 51.6215 31.9798C51.1871 32.0669 50.7369 32.0222 50.3278 31.8513C49.9187 31.6804 49.569 31.3909 49.3229 31.0196C49.0769 30.6483 48.9456 30.2117 48.9456 29.7651C48.9456 29.4686 49.0035 29.175 49.116 28.901C49.2286 28.627 49.3935 28.3781 49.6014 28.1684C49.8093 27.9588 50.0562 27.7924 50.3278 27.679C50.5995 27.5655 50.8906 27.5071 51.1847 27.5071ZM43.9111 9.03412C43.5988 9.05135 43.2864 9.00419 42.9928 8.89554C42.6992 8.78688 42.4306 8.61901 42.2035 8.40217C41.9764 8.18534 41.7956 7.92409 41.6719 7.63438C41.5483 7.34468 41.4846 7.0326 41.4846 6.71721C41.4846 6.40182 41.5483 6.08975 41.6719 5.80004C41.7956 5.51034 41.9764 5.24909 42.2035 5.03225C42.4306 4.81541 42.6992 4.64754 42.9928 4.53889C43.2864 4.43023 43.5988 4.38308 43.9111 4.4003H49.4676V9.03412H43.9111ZM32.4342 28.6015C32.436 26.2959 33.3445 24.0852 34.9604 22.4543C36.5763 20.8234 38.7677 19.9055 41.0539 19.9018H49.4676V24.314C48.177 24.7273 47.0756 25.5924 46.3623 26.7532C45.6491 27.9139 45.371 29.2936 45.5784 30.643C45.7857 31.9925 46.4648 33.2226 47.493 34.1112C48.5212 34.9998 49.8306 35.4882 51.1847 35.4882C52.5387 35.4882 53.8482 34.9998 54.8763 34.1112C55.9045 33.2226 56.5836 31.9925 56.791 30.643C56.9983 29.2936 56.7203 27.9139 56.007 26.7532C55.2937 25.5924 54.1923 24.7273 52.9017 24.314V19.9018H64.5367C62.4725 22.0279 61.3162 24.8848 61.3154 27.8603V48.5705H33.2652C33.043 48.5705 32.8299 48.4815 32.6727 48.323C32.5156 48.1645 32.4273 47.9496 32.4273 47.7255L32.4342 28.6015Z" fill="black"/>
</svg>
